<?xml version="1.0" encoding="UTF-8"?><svg id="flip" xmlns="http://www.w3.org/2000/svg" viewBox="0 0 512 512"><path d="m322.77.15c22.91,0,45.83-.03,68.75,0,8.93,0,11.88,2.7,11.89,11.23.05,52.56.05,105.13,0,157.69,0,8.38-3.13,11.18-12.02,11.19-42.45.03-84.92,0-127.38,0h-125.35c-10.8,0-13.42-2.58-13.42-13.2V13.31C125.26,2.34,127.67.03,139.19.03c24.49,0,48.98-.13,73.46.12h110.13Zm-99.66,17.46c-23.82-.24-47.65-.09-71.46-.09h-7.62v144.49h240.66V17.63h-7.78c-24.72,0-49.45-.18-74.16.11l-79.63-.12Z"/><path d="m240.01,232.14c-10.29-6.89-20.55-13.81-30.87-20.63-3.83-2.54-6.38-5.64-5.18-10.41,1.62-6.46,8.63-8.68,14.98-4.52,13.98,9.14,27.84,18.47,41.74,27.74,5,3.34,10.1,6.55,14.96,10.07,6.7,4.86,6.55,11.85-.66,15.95-18.8,10.69-37.77,21.09-56.71,31.55-5.08,2.81-9.63,1.98-12.91-2.8-3.01-4.39-1.31-9.56,4.14-12.7,8.4-4.85,16.94-9.49,25.11-15.53-10.63-.54-21.24-1.2-31.87-1.59-45.42-1.66-90.56-5.86-134.58-17.29-16.12-4.18-32.33-9.69-46.93-17.41-28.48-15.07-28.08-37.76-.22-53.92,16.59-9.61,34.97-14.62,53.53-19.01,5.84-1.38,10.42,1.39,11.6,6.22,1.28,5.27-1.43,9.16-7.7,11.11-12.38,3.83-24.96,7.17-37.06,11.74-6.77,2.56-13.12,6.69-18.91,11.06-5.53,4.17-5.61,8.57.22,12.36,7.94,5.17,16.47,9.85,25.35,13.17,28.47,10.65,58.37,15.91,88.5,18.98,34.13,3.5,68.46,5.3,102.7,7.82.26-.67.5-1.33.75-2v.03Z"/><path d="m333.94,248.48c-6.88.15-10.94-2.93-11.45-7.95-.54-5.27,3.51-9.19,10.22-9.73,36.05-2.95,72.04-6.57,107.01-15.97,14.61-3.93,29.05-9.16,42.66-15.66,14.9-7.11,14.77-15.04.31-23.32-8.05-4.61-17.06-7.64-25.66-11.32-2.05-.88-4.33-1.28-6.3-2.29-4.57-2.33-6.5-6.07-4.68-10.93,1.81-4.8,5.8-6.96,10.75-5.51,14.67,4.27,28.99,9.44,41.24,18.76,18.49,14.08,18.91,32.8-.46,45.53-11.53,7.57-24.76,13.45-38.04,17.6-41.07,12.85-83.72,17.46-125.58,20.79h-.01Z"/></svg>